<?xml version="1.0" standalone="no"?>
<!DOCTYPE svg PUBLIC "-//W3C//DTD SVG 20010904//EN"
 "http://www.w3.org/TR/2001/REC-SVG-20010904/DTD/svg10.dtd">
<svg version="1.0" xmlns="http://www.w3.org/2000/svg"
 width="2000.000000pt" height="2000.000000pt" viewBox="0 0 2000.000000 2000.000000"
 preserveAspectRatio="xMidYMid meet">

<g transform="translate(0.000000,2000.000000) scale(0.100000,-0.100000)"
fill="#000000" stroke="none">
<path d="M5885 19863 c-194 -17 -459 -66 -700 -128 -147 -38 -227 -61 -440
-127 -22 -7 -42 -15 -45 -18 -3 -3 -11 -6 -18 -8 -28 -5 -436 -257 -692 -426
-576 -382 -1011 -736 -1430 -1162 -309 -315 -511 -560 -715 -869 -407 -616
-631 -1210 -716 -1895 -27 -210 -32 -671 -11 -885 133 -1331 817 -2730 2083
-4257 l97 -118 0 -613 c0 -637 9 -956 43 -1487 112 -1786 451 -3575 1000
-5285 50 -154 95 -295 101 -313 7 -24 14 -32 25 -27 12 4 13 2 5 -7 -15 -18
706 -842 724 -828 8 8 11 6 10 -5 -1 -17 121 -77 419 -205 1273 -546 2496
-843 3795 -921 295 -18 958 -15 1240 5 1204 87 2313 349 3495 826 329 133 420
176 417 196 -3 14 -1 15 10 7 10 -8 77 56 306 298 161 170 290 314 287 319 -3
6 0 10 7 10 22 0 246 662 418 1235 498 1657 773 3259 841 4888 13 323 7 1233
-11 1512 -12 201 -38 536 -46 617 l-6 56 154 164 c1363 1446 2146 2826 2327
4103 34 242 44 421 38 689 -8 328 -39 555 -117 861 -210 817 -675 1568 -1431
2310 -227 223 -382 360 -644 570 -303 243 -895 662 -895 633 0 -7 -4 -6 -12 4
-14 17 -133 38 -353 63 -714 80 -1399 6 -2094 -227 l-183 -62 6 -34 c3 -19 7
-37 10 -39 3 -3 60 -9 128 -14 594 -44 1173 -253 1658 -599 154 -110 147 -101
121 -143 -46 -74 -132 -132 -244 -164 -32 -9 -116 -17 -222 -20 -162 -5 -213
-1 -451 33 -34 5 -42 3 -46 -12 -3 -11 -9 -26 -12 -35 -5 -12 28 -42 130 -119
306 -232 630 -511 879 -757 1158 -1143 1551 -2261 1195 -3398 -100 -322 -288
-689 -518 -1013 -184 -258 -354 -455 -652 -753 -303 -304 -535 -506 -892 -777
l-146 -112 -4561 0 -4561 0 -122 107 c-281 244 -631 615 -829 878 -577 766
-801 1556 -669 2363 119 730 514 1467 1208 2252 277 313 726 743 1122 1072
217 181 533 429 578 453 33 18 37 24 34 54 l-3 33 -102 -6 c-300 -20 -630 68
-879 235 l-67 44 27 49 c61 112 213 242 382 326 87 44 260 105 395 140 140 36
443 86 605 100 176 15 190 18 190 38 0 10 5 23 11 29 16 16 -23 65 -95 120
-118 88 -281 149 -466 173 -71 9 -337 11 -425 3z m473 -88 c150 -25 299 -85
381 -155 l34 -29 -34 -5 c-19 -2 -99 -12 -179 -21 -393 -44 -678 -118 -925
-240 -204 -101 -359 -238 -428 -379 -31 -64 -32 -66 -12 -66 18 0 19 -12 4
-27 -9 -9 12 -27 82 -73 236 -156 471 -234 740 -248 l127 -7 -107 -82 c-635
-487 -1270 -1086 -1697 -1599 -592 -711 -947 -1424 -1055 -2114 -26 -173 -37
-530 -20 -692 72 -685 345 -1275 895 -1933 119 -143 475 -501 636 -641 157
-136 150 -131 161 -113 7 11 9 11 9 -3 0 -17 225 -18 4580 -18 4355 0 4580 1
4580 18 0 13 2 14 9 3 11 -17 10 -17 136 78 1093 818 1835 1725 2109 2576 107
335 142 579 133 935 -11 424 -102 777 -312 1205 -324 663 -939 1364 -1768
2015 -80 63 -145 116 -143 117 1 2 62 -2 135 -9 101 -9 165 -9 267 0 256 22
402 99 475 250 20 41 21 45 5 54 -13 7 -14 13 -6 23 8 10 -10 28 -82 82 -478
357 -1005 572 -1592 647 -66 9 -121 17 -123 19 -10 10 411 125 593 162 564
114 1093 123 1713 30 l104 -15 186 -127 c1535 -1042 2438 -2154 2746 -3377 74
-296 108 -579 109 -906 0 -399 -49 -749 -165 -1172 -295 -1076 -1047 -2272
-2189 -3483 -163 -173 -155 -162 -140 -180 11 -13 9 -15 -10 -15 -20 0 -21 -4
-16 -37 7 -48 33 -379 46 -593 60 -986 17 -2119 -120 -3175 -156 -1199 -431
-2417 -831 -3670 -97 -302 -255 -766 -273 -802 -6 -11 -140 -158 -298 -325
l-287 -303 -103 -44 c-1195 -512 -2303 -809 -3438 -920 -395 -39 -549 -46
-1005 -46 -458 0 -655 9 -1025 46 -1156 115 -2340 438 -3468 945 -81 37 -173
78 -205 92 -54 24 -78 49 -400 416 -188 215 -350 400 -359 412 -10 12 -62 160
-117 330 -546 1696 -885 3467 -1000 5224 -37 554 -45 828 -46 1498 0 523 -3
662 -12 662 -17 0 -17 17 -1 22 7 3 -44 73 -122 169 -1074 1304 -1718 2498
-1959 3629 -79 369 -105 643 -98 1025 6 322 23 486 77 752 292 1423 1382 2705
3256 3831 215 128 246 141 549 226 344 96 597 144 895 170 77 7 307 -4 398
-19z"/>
</g>
</svg>
